<svg viewBox="559.8275449101797 0 288.3449101796407 843" version="1.1" id="svg2" fill="none" xmlns="http://www.w3.org/2000/svg" style="max-height: 500px" width="288.3449101796407" height="843">
  <metadata id="metadata57">
    
      
        image/svg+xml
        
      
    
  </metadata>
  
  <g style="opacity:0.2" id="g4">
    <path style="fill:#f9e050" id="path6" d="m 563.032,230.781 191.196,0 0,191.051 -191.196,0 0,-191.051 z"/>
    <path style="fill:#f4f464" id="path8" d="m 281.466,703.18 191.196,0 0,139.724 -191.196,0 0,-139.724 z"/>
    <path style="fill:#f4f464" id="path10" d="m 422.248,562.507 191.196,0 0,191.05 -191.196,0 0,-191.05 z m -422.24800129987,0 140.78100129987,0 0,140.674 -140.781000342753,0 -9.57117e-7,-140.674 z M 281.467,422.023 l 140.781,0 0,140.674 -140.781,0 0,-140.674 z"/>
    <path style="fill:#f9b038" id="path12" d="m 563.031,90.4857 191.196,0 0,191.0503 -191.196,0 0,-191.0503 z"/>
    <path style="fill:#f6842d" id="path14" d="m 512.707,-5.49316e-4 241.421,-1.64e-6 0,140.674550956 -241.421,0 0,-140.674549316 z"/>
    <path style="fill:#f9e050" id="path16" d="m 140.783,-3.66211e-4 140.781,-9.56e-7 0,140.674367167 -140.781,0 0,-140.674366211 z"/>
    <path style="fill:#f6842d" id="path18" d="m 563.031,652.803 191.196,0 0,190.101 -191.196,0 0,-190.101 z"/>
    <path style="fill:#f4f464" id="path20" d="m 281.465,140.768 140.781,0 0,140.674 -140.781,0 0,-140.674 z"/>
    <path style="fill:#f4ac2b" id="path22" d="m 702.953,512.129 191.196,0 0,191.05 -191.196,0 0,-191.05 z"/>
    <path style="fill:#f6842d" id="path24" d="m 702.953,371.742 191.196,0 0,191.051 -191.196,0 0,-191.051 z"/>
    <path style="fill:#f4ac2b" id="path26" d="m 702.953,230.781 191.196,0 0,191.051 -191.196,0 0,-191.051 z"/>
    <path style="fill:#f6842d" id="path28" d="m 702.953,90.4865 191.196,-1e-4 0,191.0506 -191.196,0 0,-191.0505 z"/>
    <path style="fill:#f14d34" id="path30" d="m 703.904,842.904 0,-139.723 139.829,0 0,-562.507 -140.781,0 0,-140.674183105 377.348,-2.564e-6 C 1137,-1.86054e-4 1186.08,6.46331 1227.36,19.4852 c 41.28,12.8318 75.15,35.4536 101.78,67.7707 26.64,32.3171 46.61,76.0401 59.55,131.1691 12.94,54.939 19.31,124.801 19.31,209.776 0,85.735 -5.99,155.312 -18.07,208.54 -12.18,54.178 -31.2,96.286 -57.08,126.226 -25.64,31.038 -60.53,53.083 -99.59,62.923 -40.43,11.406 -89.42,17.11 -146.77,17.11 l -242.852,0 -139.734,-0.096 z m 286.603,-115.295 91.033,0 c 31.39,0 58.59,-3.612 81.23,-10.836 23.66,-6.652 43.72,-22.365 55.84,-43.723 14.65,-21.862 25.11,-52.563 31.58,-92.199 7.33,-39.636 10.94,-92.198 10.94,-157.783 0,-65.394 -3.8,-118.337 -11.03,-158.734 -6.38,-39.636 -16.84,-70.717 -31.39,-93.339 -13.45,-20.889 -33.56,-36.631 -57.08,-44.673 -22.83,-7.319 -49.46,-10.931 -80.19,-10.931 l -90.933,0 0,612.218 z"/>
    <path style="fill:#f9e050" id="path32" d="m 563.03,562.505 140.781,0 0,140.674 -140.781,0 0,-140.674 z"/>
    <path style="fill:#f9b038" id="path34" d="m 422.248,6.10352e-5 140.781,-9.564e-7 0,140.6739399212 -140.781,0 0,-140.6739389648 z"/>
    <path style="fill:#f9e050" id="path36" d="m 422.248,703.18 140.781,0 0,139.724 -140.781,0 0,-139.724 z"/>
  </g>
  <defs id="defs38">
    <filter color-interpolation-filters="sRGB" filterUnits="userSpaceOnUse" height="922.339" width="1452.28" y="-0.000488281" x="-22.1411" id="filter0_d">
      <feFlood id="feFlood41" result="BackgroundImageFix" flood-opacity="0"/>
      <feColorMatrix id="feColorMatrix43" values="0 0 0 0 0 0 0 0 0 0 0 0 0 0 0 0 0 0 127 0" type="matrix" in="SourceAlpha"/>
      <feOffset id="feOffset45" dy="57.1978"/>
      <feGaussianBlur id="feGaussianBlur47" stdDeviation="11.0705"/>
      <feColorMatrix id="feColorMatrix49" values="0 0 0 0 0 0 0 0 0 0.0495833 0 0 0 0 0.145833 0 0 0 0.25 0" type="matrix"/>
      <feBlend id="feBlend51" result="effect1_dropShadow" in2="BackgroundImageFix" mode="normal"/>
      <feBlend id="feBlend53" result="shape" in2="effect1_dropShadow" in="SourceGraphic" mode="normal"/>
    </filter>
  </defs>
</svg>